# xmcd CD database file
#
# Track frame offsets:
#	150
#	9232
#	22939
#	35762
#	49226
#	59795
#	67049
#	80279
#	91373
#	103167
#	114782
#	129674
#	145110
#	158311
#	170172
#	182892
#	197227
#	216614
#	227804
#	239395
#	251003
#	265748
#	278612
#	288646
#	299687
#	312560
#	331292
#	343632
#
# Disc length: 4760 seconds
#
# Revision: 0
# Processed by: cddbd v1.5.2PL0 Copyright (c) Steve Scherf et al.
# Submitted via: CDex 1.70beta2
#
DISCID=b012961c
DTITLE=Sonny Boy Williamson - Chess Blues Masters Series
DYEAR=1900
DGENRE=Blues
TTITLE0=One Way Out
TTITLE1=Don't Lose Your Eye
TTITLE2=Keep It To Yourself
TTITLE3=Sad To Be Alone
TTITLE4=Let Your Concience Be Your Guide
TTITLE5=I Wonder Why
TTITLE6=I Never Do Wrong
TTITLE7=I Don't Know
TTITLE8=Don't Start Me Talkin'
TTITLE9=Bring It On Home
TTITLE10=Key To Your Door
TTITLE11=Cross My Heart
TTITLE12=Let Me Explain
TTITLE13=Stop Crying
TTITLE14=All My Love In Vain
TTITLE15=Help Me
TTITLE16=Nine Below Zero
TTITLE17=Got To Move
TTITLE18=She Got Next To Me
TTITLE19=Born Blind
TTITLE20=I Can't Be Alone
TTITLE21=Keep Your Hand Out Of My Pocket
TTITLE22=Too Close Together
TTITLE23=Understand My Life
TTITLE24=Like Wolf
TTITLE25='99'
TTITLE26=Santa Claus
TTITLE27=Your Imagination
EXTD=
EXTT0=
EXTT1=
EXTT2=
EXTT3=
EXTT4=
EXTT5=
EXTT6=
EXTT7=
EXTT8=
EXTT9=
EXTT10=
EXTT11=
EXTT12=
EXTT13=
EXTT14=
EXTT15=
EXTT16=
EXTT17=
EXTT18=
EXTT19=
EXTT20=
EXTT21=
EXTT22=
EXTT23=
EXTT24=
EXTT25=
EXTT26=
EXTT27=
PLAYORDER=
